<svg width="530" height="200" xmlns="http://www.w3.org/2000/svg">

 <g>
  <title>background</title>
  <rect fill="none" id="canvas_background" height="202" width="532" y="-1" x="-1"/>
 </g>
 <g>
  <title>Layer 1</title>
  <g id="svg_1">
   <path id="svg_2" fill="#800000" d="m132.1,149.7c-8.1,0.1 -14.7,-2.7 -19.7,-9.2c-4.6,-5.9 -7.1,-5.9 -11.6,0c-5,6.5 -11.4,9.2 -19.5,9.2c-15.4,-0.1 -30.8,-0.1 -46.1,0c3.3,4.2 7,8 11,11.4l48.1,0c7,0 12.9,-2.8 17.2,-8.5c0.8,-1.1 1.7,-2.2 2.7,-3.2c2.5,-2.5 5.1,-2.5 7.5,0c0.9,0.9 1.8,1.9 2.5,3c4.6,6.1 10.9,8.7 18.3,8.7l7.2,0c4,-3.4 7.7,-7.3 11,-11.4c-9.4,-0.1 -19,-0.1 -28.6,0z"/>
   <path id="svg_3" fill="#800000" d="m134.8,162.8c-4.3,-5.6 -6.9,-5.5 -11.2,0.1c-5.1,6.7 -11.7,9.5 -20.1,9.5c-13.3,-0.1 -26.7,-0.1 -40,-0.1c10.4,5 22.1,7.7 34.4,7.7c15.5,0 29.9,-4.4 42.2,-12c-1.9,-1.4 -3.6,-3.1 -5.3,-5.2z"/>
   <path id="svg_4" fill="#800000" d="m109.1,47.8c5.9,-0.5 10.8,-2.9 14.6,-7.5c1.1,-1.4 2.2,-2.8 3.5,-4c2.6,-2.6 5.1,-2.5 7.6,0.2c0.8,0.8 1.5,1.7 2.2,2.6c4.4,5.9 10.4,8.8 17.8,8.8l4,0c-6.7,-7.7 -14.7,-14.2 -23.8,-18.9c-4.8,5.3 -10.8,7.6 -18.2,7.6c-22.5,-0.1 -45.1,-0.1 -67.6,0c-4.4,3.4 -8.4,7.2 -12,11.4l67.1,0c1.6,0 3.2,-0.1 4.8,-0.2z"/>
   <path id="svg_5" fill="#800000" d="m98,20c-10.2,0 -19.9,1.9 -28.9,5.4l57.8,0c-9.2,-3.6 -19,-5.4 -28.9,-5.4z"/>
   <path id="svg_6" fill="#800000" d="m70.9,138.4c7.7,0 14,-3 18.7,-9.3c4.4,-5.9 6.9,-5.9 11.5,0c5,6.6 11.6,9.3 19.7,9.3l47.5,0c2,-3.6 3.7,-7.4 5.1,-11.3l-63.7,0c-8.3,0 -15,-2.8 -20.1,-9.5c-4.3,-5.7 -7,-5.7 -11.2,-0.1c-5.1,6.8 -11.9,9.7 -20.3,9.6c-11.9,-0.1 -23.7,0 -35.6,0c1.4,3.9 3.1,7.7 5.1,11.3c14.5,0.1 28.9,0.1 43.3,0z"/>
   <path id="svg_7" fill="#800000" d="m49.9,115.7c6.6,-0.1 12.1,-2.9 16.2,-8.2c1.1,-1.4 2.2,-2.8 3.5,-3.9c2,-1.8 4,-1.8 6,-0.1c0.8,0.7 1.6,1.5 2.2,2.3c5.1,7.3 12.2,10.1 21,10c25.9,-0.1 51.8,-0.1 77.7,-0.1c0.8,-3.7 1.2,-7.5 1.4,-11.4l-78.9,0c-7.7,0 -13.9,-2.7 -18.7,-8.9c-4.8,-6.3 -7.2,-6.4 -12.1,-0.1c-4.9,6.3 -11.2,9.1 -19.1,9c-10,-0.1 -19.9,0 -29.9,0l-1.2,0c0.2,3.8 0.7,7.6 1.4,11.4c10.2,0.1 20.3,0.2 30.5,0z"/>
   <path id="svg_8" fill="#800000" d="m86.5,70.4c5.9,-0.5 10.8,-3 14.6,-7.5c1.2,-1.4 2.3,-2.9 3.6,-4.2c2.3,-2.2 4.6,-2.2 6.9,0c0.9,0.8 1.7,1.8 2.4,2.8c4.8,6.6 11.5,9.2 19.5,9.2c13,-0.1 25.9,0 38.9,0c-1.6,-3.9 -3.4,-7.7 -5.6,-11.4c-6.8,0 -13.6,0 -20.3,0.1c-9.2,0.2 -16.5,-2.7 -22,-10.3c-3.4,-4.7 -6.6,-4.6 -10,0c-5.3,7.3 -12.5,10.3 -21.5,10.2c-21.3,-0.2 -42.6,-0.1 -64,-0.1c-2.2,3.6 -4,7.4 -5.6,11.3l58.9,0c1.5,0.1 2.8,0 4.2,-0.1z"/>
   <path id="svg_9" fill="#800000" d="m19.9,93.1c13.4,0 26.9,-0.1 40.3,0c8.1,0.1 14.7,-2.8 19.7,-9.3c4.5,-5.8 7,-5.8 11.5,0c4.9,6.4 11.2,9.3 19.2,9.2c22.4,-0.1 44.8,0 67.2,0c-0.3,-3.8 -0.9,-7.6 -1.8,-11.3c-16.8,0 -33.7,-0.2 -50.5,0.1c-10,0.2 -18.3,-2.3 -24,-11l-0.3,-0.3c-2.9,-3.2 -5.5,-3.2 -8.5,-0.1c-0.5,0.5 -0.9,1 -1.3,1.6c-5,7 -11.9,9.8 -20.4,9.7c-17,-0.1 -34,0 -51,0c-0.9,3.7 -1.5,7.5 -1.8,11.2c0,0.2 1.7,0.2 1.7,0.2z"/>
  </g>
  <text font-style="normal" font-weight="normal" style="cursor: move;" transform="matrix(2.832275390625,0,0,2.832275390625,-374.7003173828125,-213.37419509887695) " xml:space="preserve" text-anchor="start" font-family="Oswald, sans-serif" font-size="24" id="svg_10" y="119.112719" x="200.263124" fill="#800000">Nick Keller</text>
 </g>
</svg>