<svg viewBox="0 0 200 200" height="200" width="200" xmlns="http://www.w3.org/2000/svg" data-type="color">
    <g>
        <path d="M134.1 149.7c-8.1.1-14.7-2.7-19.7-9.2-4.6-5.9-7.1-5.9-11.6 0-5 6.5-11.4 9.2-19.5 9.2-15.4-.1-30.8-.1-46.1 0 3.3 4.2 7 8 11 11.4h48.1c7 0 12.9-2.8 17.2-8.5.8-1.1 1.7-2.2 2.7-3.2 2.5-2.5 5.1-2.5 7.5 0 .9.9 1.8 1.9 2.5 3 4.6 6.1 10.9 8.7 18.3 8.7h7.2c4-3.4 7.7-7.3 11-11.4-9.4-.1-19-.1-28.6 0z" fill="#800000" data-color="1"/>
        <path d="M136.8 162.8c-4.3-5.6-6.9-5.5-11.2.1-5.1 6.7-11.7 9.5-20.1 9.5-13.3-.1-26.7-.1-40-.1 10.4 5 22.1 7.7 34.4 7.7 15.5 0 29.9-4.4 42.2-12-1.9-1.4-3.6-3.1-5.3-5.2z" fill="#800000" data-color="1"/>
        <path d="M111.1 47.8c5.9-.5 10.8-2.9 14.6-7.5 1.1-1.4 2.2-2.8 3.5-4 2.6-2.6 5.1-2.5 7.6.2.8.8 1.5 1.7 2.2 2.6 4.4 5.9 10.4 8.8 17.8 8.8h4c-6.7-7.7-14.7-14.2-23.8-18.9-4.8 5.3-10.8 7.6-18.2 7.6-22.5-.1-45.1-.1-67.6 0-4.4 3.4-8.4 7.2-12 11.4h67.1c1.6 0 3.2-.1 4.8-.2z" fill="#800000" data-color="1"/>
        <path d="M100 20c-10.2 0-19.9 1.9-28.9 5.4h57.8c-9.2-3.6-19-5.4-28.9-5.4z" fill="#800000" data-color="1"/>
        <path d="M72.9 138.4c7.7 0 14-3 18.7-9.3 4.4-5.9 6.9-5.9 11.5 0 5 6.6 11.6 9.3 19.7 9.3h47.5c2-3.6 3.7-7.4 5.1-11.3h-63.7c-8.3 0-15-2.8-20.1-9.5-4.3-5.7-7-5.7-11.2-.1-5.1 6.8-11.9 9.7-20.3 9.6-11.9-.1-23.7 0-35.6 0 1.4 3.9 3.1 7.7 5.1 11.3 14.5.1 28.9.1 43.3 0z" fill="#800000" data-color="1"/>
        <path d="M51.9 115.7c6.6-.1 12.1-2.9 16.2-8.2 1.1-1.4 2.2-2.8 3.5-3.9 2-1.8 4-1.8 6-.1.8.7 1.6 1.5 2.2 2.3 5.1 7.3 12.2 10.1 21 10 25.9-.1 51.8-.1 77.7-.1.8-3.7 1.2-7.5 1.4-11.4H101c-7.7 0-13.9-2.7-18.7-8.9-4.8-6.3-7.2-6.4-12.1-.1-4.9 6.3-11.2 9.1-19.1 9-10-.1-19.9 0-29.9 0H20c.2 3.8.7 7.6 1.4 11.4 10.2.1 20.3.2 30.5 0z" fill="#800000" data-color="1"/>
        <path d="M88.5 70.4c5.9-.5 10.8-3 14.6-7.5 1.2-1.4 2.3-2.9 3.6-4.2 2.3-2.2 4.6-2.2 6.9 0 .9.8 1.7 1.8 2.4 2.8 4.8 6.6 11.5 9.2 19.5 9.2 13-.1 25.9 0 38.9 0-1.6-3.9-3.4-7.7-5.6-11.4-6.8 0-13.6 0-20.3.1-9.2.2-16.5-2.7-22-10.3-3.4-4.7-6.6-4.6-10 0-5.3 7.3-12.5 10.3-21.5 10.2-21.3-.2-42.6-.1-64-.1-2.2 3.6-4 7.4-5.6 11.3h58.9c1.5.1 2.8 0 4.2-.1z" fill="#800000" data-color="1"/>
        <path d="M21.9 93.1c13.4 0 26.9-.1 40.3 0 8.1.1 14.7-2.8 19.7-9.3 4.5-5.8 7-5.8 11.5 0 4.9 6.4 11.2 9.3 19.2 9.2 22.4-.1 44.8 0 67.2 0-.3-3.8-.9-7.6-1.8-11.3-16.8 0-33.7-.2-50.5.1-10 .2-18.3-2.3-24-11l-.3-.3c-2.9-3.2-5.5-3.2-8.5-.1-.5.5-.9 1-1.3 1.6-5 7-11.9 9.8-20.4 9.7-17-.1-34 0-51 0-.9 3.7-1.5 7.5-1.8 11.2 0 .2 1.7.2 1.7.2z" fill="#800000" data-color="1"/>
    </g>
</svg>
